<?xml version="1.0" encoding="UTF-8"?>
<svg width="256" height="256" viewBox="0 0 256 256" fill="none" xmlns="http://www.w3.org/2000/svg">
  <rect width="256" height="256" rx="40" fill="#4361EE"/>
  <path d="M63 96C63 85.5066 71.5066 77 82 77H92C102.493 77 111 85.5066 111 96V105C111 115.493 102.493 124 92 124H82C71.5066 124 63 132.507 63 143V160C63 170.493 71.5066 179 82 179H92C102.493 179 111 170.493 111 160" stroke="white" stroke-width="14" stroke-linecap="round"/>
  <path d="M123 96C123 85.5066 131.507 77 142 77H152C162.493 77 171 85.5066 171 96V105C171 115.493 162.493 124 152 124H142C131.507 124 123 132.507 123 143V160C123 170.493 131.507 179 142 179H152C162.493 179 171 170.493 171 160" stroke="white" stroke-width="14" stroke-linecap="round"/>
  <path d="M183 96C183 85.5066 191.507 77 202 77H212C222.493 77 231 85.5066 231 96V105C231 115.493 222.493 124 212 124H202C191.507 124 183 132.507 183 143V160C183 170.493 191.507 179 202 179H212C222.493 179 231 170.493 231 160" stroke="white" stroke-width="14" stroke-linecap="round"/>
</svg> 