<?xml version="1.0" encoding="UTF-8"?>
<svg width="256" height="256" viewBox="0 0 256 256" fill="none" xmlns="http://www.w3.org/2000/svg">
  <rect width="256" height="256" rx="40" fill="#4361EE"/>
  <path d="M76 64C76 60.6863 78.6863 58 82 58C85.3137 58 88 60.6863 88 64V192C88 195.314 85.3137 198 82 198C78.6863 198 76 195.314 76 192V64Z" fill="white"/>
  <path d="M168 64C168 60.6863 170.686 58 174 58C177.314 58 180 60.6863 180 64V192C180 195.314 177.314 198 174 198C170.686 198 168 195.314 168 192V64Z" fill="white"/>
  <path d="M88 64C88 60.6863 90.6863 58 94 58H108C111.314 58 114 60.6863 114 64C114 67.3137 111.314 70 108 70H94C90.6863 70 88 67.3137 88 64Z" fill="white"/>
  <path d="M142 64C142 60.6863 144.686 58 148 58H162C165.314 58 168 60.6863 168 64C168 67.3137 165.314 70 162 70H148C144.686 70 142 67.3137 142 64Z" fill="white"/>
  <path d="M88 192C88 188.686 90.6863 186 94 186H108C111.314 186 114 188.686 114 192C114 195.314 111.314 198 108 198H94C90.6863 198 88 195.314 88 192Z" fill="white"/>
  <path d="M142 192C142 188.686 144.686 186 148 186H162C165.314 186 168 188.686 168 192C168 195.314 165.314 198 162 198H148C144.686 198 142 195.314 142 192Z" fill="white"/>
</svg> 